<svg width="40" height="39" viewBox="0 0 40 39" fill="none" xmlns="http://www.w3.org/2000/svg">
<path d="M12.5596 0.00226245C13.8196 0.0405818 15.0396 0.260582 16.2216 0.662582H16.3396C16.4196 0.700582 16.4796 0.742582 16.5196 0.780582C16.9616 0.922582 17.3796 1.08258 17.7796 1.30258L18.5396 1.64258C18.8396 1.80258 19.1996 2.10058 19.3996 2.22258C19.5996 2.34058 19.8196 2.46258 19.9996 2.60058C22.2216 0.902582 24.9196 -0.0174182 27.6996 0.00226245C28.9616 0.00226245 30.2216 0.180582 31.4196 0.582582C38.8016 2.98258 41.4616 11.0826 39.2396 18.1626C37.9796 21.7806 35.9196 25.0826 33.2216 27.7806C29.3596 31.5206 25.1216 34.8406 20.5596 37.7006L20.0596 38.0026L19.5396 37.6806C14.9616 34.8406 10.6996 31.5206 6.80161 27.7606C4.12161 25.0626 2.05961 21.7806 0.779606 18.1626C-1.48039 11.0826 1.17961 2.98258 8.64161 0.540582C9.22161 0.340582 9.81961 0.200582 10.4196 0.122582H10.6596C11.2216 0.0405818 11.7796 0.00226245 12.3396 0.00226245H12.5596ZM30.3796 6.32258C29.5596 6.04058 28.6596 6.48258 28.3596 7.32258C28.0796 8.16258 28.5196 9.08258 29.3596 9.38058C30.6416 9.86058 31.4996 11.1226 31.4996 12.5206V12.5826C31.4616 13.0406 31.5996 13.4826 31.8796 13.8226C32.1596 14.1626 32.5796 14.3606 33.0196 14.4026C33.8396 14.3806 34.5396 13.7226 34.5996 12.8806V12.6426C34.6596 9.84058 32.9616 7.30258 30.3796 6.32258Z" fill="#1EA7FB"/>
</svg>
