<svg width="225" height="66" viewBox="0 0 225 66" fill="none" xmlns="http://www.w3.org/2000/svg">
<path d="M51.4333 28.5939V30.5816C51.4333 34.3362 50.6493 36.9202 49.0814 38.3337C47.5134 39.7472 44.6462 40.6528 40.4798 41.0503L27.376 42.3092V50.1939C27.376 53.6393 30.2879 55.362 36.1119 55.362C42.7422 55.362 46.0574 53.8601 46.0574 50.8564V48.3386C46.0574 47.3227 46.9534 46.8147 48.7454 46.8147C50.5373 46.8147 51.4333 47.3227 51.4333 48.3386V50.1939C51.4333 56.7313 46.5054 60 36.6495 60C32.3039 60 28.7647 59.1607 26.032 57.4822C23.344 55.8037 22 53.1534 22 49.5313V28.7264C22 25.0601 23.4336 22.4098 26.3008 20.7755C29.1679 19.0969 32.9087 18.2577 37.5231 18.2577C42.1374 18.2577 45.6094 19.0528 47.939 20.6429C50.2685 22.2331 51.4333 24.8834 51.4333 28.5939ZM27.376 28.0638V37.6712L40.0094 36.4123C42.563 36.1472 44.1982 35.6172 44.915 34.8221C45.6766 34.027 46.0574 32.6135 46.0574 30.5816V28.0638C46.0574 24.6184 42.9438 22.8957 36.7167 22.8957C30.4895 22.8957 27.376 24.6184 27.376 28.0638Z" fill="#E2E2E2"/>
<path d="M93.9501 7.52393V49.5313C93.9501 53.1975 92.6285 55.8699 89.9853 57.5485C87.3421 59.1828 83.8254 60 79.435 60C75.0446 60 71.5055 59.1828 68.8175 57.5485C66.1743 55.8699 64.8527 53.1975 64.8527 49.5313V29.7202C64.8527 26.054 66.1743 23.4037 68.8175 21.7693C71.4607 20.0908 74.9774 19.2515 79.3678 19.2515H85.2142C86.1101 19.2515 86.5582 20.0245 86.5582 21.5706C86.5582 23.1166 86.1101 23.8896 85.2142 23.8896H79.3678C73.2751 23.8896 70.2287 25.6123 70.2287 29.0577V50.1939C70.2287 53.6393 73.2751 55.362 79.3678 55.362C85.5054 55.362 88.5741 53.6393 88.5741 50.1939V7.52393C88.5741 6.50798 89.4701 6 91.2621 6C93.0541 6 93.9501 6.50798 93.9501 7.52393Z" fill="#E2E2E2"/>
<path d="M139.819 19.4503V57.8135C139.819 58.8294 138.923 59.3374 137.131 59.3374C135.339 59.3374 134.443 58.8294 134.443 57.8135V39.8577H114.082V57.8135C114.082 58.8294 113.186 59.3374 111.394 59.3374C109.602 59.3374 108.706 58.8294 108.706 57.8135V19.4503C108.706 16.9767 109.445 14.9448 110.923 13.3546C112.402 11.7202 114.283 10.5939 116.568 9.97546C118.853 9.31288 121.541 8.98159 124.632 8.98159C134.757 8.98159 139.819 12.4712 139.819 19.4503ZM114.082 18.7877V35.2196H134.443V18.7877C134.443 15.3423 131.038 13.6196 124.229 13.6196C117.464 13.6196 114.082 15.3423 114.082 18.7877Z" fill="#E2E2E2"/>
<path d="M172.452 31.3767V28.0638C172.452 24.6184 170.369 22.8957 166.203 22.8957C162.036 22.8957 159.953 24.6184 159.953 28.0638V58.4761C159.953 59.492 159.057 60 157.265 60C155.473 60 154.577 59.492 154.577 58.4761V28.7264C154.577 25.0601 155.63 22.4098 157.735 20.7755C159.886 19.0969 162.708 18.2577 166.203 18.2577C173.953 18.2577 177.828 21.7031 177.828 28.5939V31.3767C177.828 32.3926 176.932 32.9006 175.14 32.9006C173.348 32.9006 172.452 32.3926 172.452 31.3767Z" fill="#E2E2E2"/>
<path d="M194.6 11.4994V19.2515H201.656C202.552 19.2515 203 20.0245 203 21.5706C203 23.1166 202.552 23.8896 201.656 23.8896H194.6V51.254C194.6 52.6675 194.936 53.9926 195.608 55.2294C196.28 56.4221 196.616 57.0405 196.616 57.0847C196.616 57.6147 196.19 58.189 195.339 58.8074C194.488 59.3816 193.771 59.6687 193.189 59.6687C192.248 59.6687 191.352 58.8736 190.501 57.2834C189.65 55.6491 189.224 53.8601 189.224 51.9166V23.8896H183.848C182.952 23.8896 182.504 23.1166 182.504 21.5706C182.504 20.0245 182.952 19.2515 183.848 19.2515H189.224V11.4994C189.224 10.4834 190.12 9.97546 191.912 9.97546C193.704 9.97546 194.6 10.4834 194.6 11.4994Z" fill="#E2E2E2"/>
<rect x="0.5" y="0.5" width="224" height="65" stroke="#E2E2E2"/>
</svg>
