<svg width="157" height="70" viewBox="0 0 157 70" fill="none" xmlns="http://www.w3.org/2000/svg">
<g clipPath="url(#clip0)">
<path d="M3.10763 32.1564H3.31659C4.15244 32.1564 4.77932 31.7329 5.19724 31.3095C6.45101 29.8273 8.54062 28.9804 10.8392 29.6156C12.9288 30.039 14.3915 31.733 15.0184 33.8503C15.8543 37.6616 13.1378 41.0494 9.58543 41.0494C7.91374 41.0494 6.45101 40.2025 5.40621 39.1438C4.98828 38.5086 4.15244 38.2968 3.52555 38.2968H3.10763C1.6449 38.2968 0.600098 39.3555 0.600098 40.8377V55.2358H14.8095C16.2722 55.2358 17.317 56.2945 17.317 57.7767V57.9884C17.317 58.8354 16.8991 59.4706 16.4811 59.8941C15.0184 61.1645 14.1826 63.2819 14.8095 65.611C15.2274 67.7284 16.8991 69.2105 18.9887 69.8457C22.75 70.6927 26.0934 67.9401 26.0934 64.3406C26.0934 62.6467 25.2575 61.1645 24.2127 60.1058C23.5858 59.6823 23.3769 58.8354 23.3769 58.2002V57.9884C23.3769 56.5063 24.4217 55.4476 25.8844 55.4476H40.0938V15.2174H0.600098V29.6156C0.600098 31.0977 1.6449 32.1564 3.10763 32.1564Z" fill="#E2E2E2"/>
<path d="M47.5444 28.1774C40.1543 32.4305 32.2363 35.3546 24.0544 36.6837C24.3183 36.9495 24.3183 37.4812 24.5822 37.747C32.5002 33.228 40.4182 28.4432 45.6968 20.4685C45.9608 20.2027 45.6968 19.671 45.4329 19.671C38.8346 18.8736 32.5002 21.266 28.2773 26.3166C28.0133 26.5824 28.0133 27.3799 28.8051 27.3799C33.292 27.1141 37.251 25.2533 40.4182 21.7976C40.4182 21.5318 40.4182 21.0002 39.8903 20.7343C32.5002 17.8103 24.8462 17.5445 17.1921 17.8103C17.1921 18.3419 17.1921 18.6077 17.456 19.1394C23.5265 18.0761 29.0691 15.6837 34.0838 11.6964C34.6117 11.4305 34.0838 10.8989 33.8199 10.6331C28.5412 8.50648 22.9986 7.44319 17.456 7.44319C16.6642 7.44319 16.6642 8.50648 17.1921 8.77231C22.2068 9.56978 25.9019 5.58243 24.8462 0.531801C24.5822 -0.265667 23.2626 0.000155672 23.5265 0.797624C24.3183 5.31661 22.2068 7.44319 17.1921 7.44319C17.1921 7.97484 17.1921 8.24066 16.9282 8.77231C22.4708 8.77231 27.7494 9.56977 33.0281 11.9622C33.0281 11.6964 32.7641 11.1647 32.7641 10.8989C28.0133 14.6204 22.7347 17.0128 16.6642 18.0761C15.8724 18.0761 16.1364 19.4052 16.9282 19.4052C24.5822 19.4052 32.2363 19.4052 39.3625 22.3293C39.3625 22.0634 39.0985 21.5318 39.0985 21.266C36.1953 24.4559 32.7641 26.0508 28.2773 26.3166C28.5412 26.5824 28.5412 27.1141 28.8051 27.3799C31.1805 24.4559 34.3477 22.0634 38.0428 21.266C39.0985 21.0002 41.4739 20.4685 42.5296 20.7343C44.905 21.5318 41.4739 23.9242 40.4182 24.9875C35.6674 30.0381 29.5969 33.4938 23.5265 36.9495C22.9986 37.2153 23.2626 38.2786 24.0544 38.0128C32.5002 36.6837 40.4182 33.7596 48.0722 29.5065C48.864 28.9748 48.3362 27.9115 47.5444 28.1774Z" fill="#E2E2E2"/>
<path d="M22.7346 41.4685C24.0543 41.4685 25.6379 41.4685 26.9575 41.2026C27.7493 40.9368 27.4854 39.8735 26.6936 40.1394C25.3739 40.4052 24.0543 40.671 22.7346 40.4052C21.9428 40.1394 21.9428 41.4685 22.7346 41.4685Z" fill="#E2E2E2"/>
<path d="M19.0398 42.0002C19.8316 42.0002 20.6234 42.266 21.1512 42.266C21.943 42.266 22.207 41.2027 21.4152 41.2027C20.6234 41.2027 19.8316 40.9369 19.3037 40.9369C18.7758 40.6711 18.248 42.0002 19.0398 42.0002Z" fill="#E2E2E2"/>
</g>
<path d="M55.238 47V25.94H60.464C61.7294 25.94 62.7347 26.174 63.48 26.642C64.2427 27.0927 64.7974 27.7513 65.144 28.618C65.4907 29.4847 65.664 30.5333 65.664 31.764C65.664 32.8733 65.4647 33.8353 65.066 34.65C64.6847 35.4647 64.1127 36.0973 63.35 36.548C62.5874 36.9813 61.634 37.198 60.49 37.198H58.176V47H55.238ZM58.176 35.092H59.528C60.3774 35.092 61.0447 34.9967 61.53 34.806C62.0154 34.6153 62.362 34.286 62.57 33.818C62.778 33.3327 62.882 32.6567 62.882 31.79C62.882 30.7847 62.804 30.0133 62.648 29.476C62.5094 28.9387 62.206 28.566 61.738 28.358C61.27 28.15 60.542 28.046 59.554 28.046H58.176V35.092Z" fill="#E2E2E2"/>
<path d="M69.6542 47.208C69.0649 47.208 68.6056 47.052 68.2762 46.74C67.9469 46.428 67.7129 46.038 67.5742 45.57C67.4529 45.102 67.3922 44.6253 67.3922 44.14V31.972H70.1742V43.308C70.1742 43.8453 70.2522 44.27 70.4082 44.582C70.5642 44.8767 70.8849 45.024 71.3702 45.024C71.6822 45.024 72.0029 44.9373 72.3322 44.764C72.6789 44.5733 73.0082 44.348 73.3202 44.088V31.972H76.1022V47H73.3202V45.518C72.8349 45.986 72.2802 46.3847 71.6562 46.714C71.0496 47.0433 70.3822 47.208 69.6542 47.208Z" fill="#E2E2E2"/>
<path d="M78.3754 47V45.128L82.9774 34.052H78.8434V31.972H85.9674V33.48L81.3394 44.894H85.8634V47H78.3754Z" fill="#E2E2E2"/>
<path d="M87.3891 47V45.128L91.9911 34.052H87.8571V31.972H94.9811V33.48L90.3531 44.894H94.8771V47H87.3891Z" fill="#E2E2E2"/>
<path d="M97.2347 47V25.94H100.017V47H97.2347Z" fill="#E2E2E2"/>
<path d="M107.076 47.208C105.897 47.208 104.987 46.9827 104.346 46.532C103.705 46.064 103.254 45.388 102.994 44.504C102.751 43.6027 102.63 42.502 102.63 41.202V37.77C102.63 36.4353 102.76 35.326 103.02 34.442C103.28 33.558 103.731 32.8907 104.372 32.44C105.031 31.9893 105.932 31.764 107.076 31.764C108.341 31.764 109.269 32.024 109.858 32.544C110.465 33.064 110.863 33.818 111.054 34.806C111.245 35.7767 111.34 36.9467 111.34 38.316V39.538H105.412V42.554C105.412 43.1607 105.464 43.6547 105.568 44.036C105.689 44.4173 105.871 44.7033 106.114 44.894C106.374 45.0673 106.703 45.154 107.102 45.154C107.518 45.154 107.83 45.0587 108.038 44.868C108.263 44.66 108.411 44.374 108.48 44.01C108.567 43.6287 108.61 43.1867 108.61 42.684V41.774H111.314V42.346C111.314 43.854 110.993 45.0413 110.352 45.908C109.711 46.7747 108.619 47.208 107.076 47.208ZM105.412 38.03H108.61V36.678C108.61 36.054 108.575 35.534 108.506 35.118C108.437 34.6847 108.289 34.364 108.064 34.156C107.856 33.9307 107.518 33.818 107.05 33.818C106.599 33.818 106.253 33.922 106.01 34.13C105.785 34.338 105.629 34.6933 105.542 35.196C105.455 35.6813 105.412 36.3573 105.412 37.224V38.03Z" fill="#E2E2E2"/>
<path d="M117.864 47.208C117.084 47.208 116.451 47.0607 115.966 46.766C115.498 46.4713 115.151 46.0553 114.926 45.518C114.718 44.9807 114.614 44.348 114.614 43.62V33.818H113.028V31.972H114.614V27.578H117.396V31.972H119.814V33.818H117.396V43.438C117.396 44.0273 117.491 44.452 117.682 44.712C117.872 44.9547 118.236 45.076 118.774 45.076C118.912 45.076 119.068 45.0673 119.242 45.05C119.432 45.0327 119.614 45.0153 119.788 44.998V47.052C119.441 47.104 119.12 47.1387 118.826 47.156C118.531 47.1907 118.21 47.208 117.864 47.208Z" fill="#E2E2E2"/>
<path d="M125.992 47.208C124.882 47.208 124.007 46.9827 123.366 46.532C122.724 46.0813 122.265 45.44 121.988 44.608C121.728 43.776 121.598 42.7967 121.598 41.67V37.302C121.598 36.1753 121.728 35.196 121.988 34.364C122.265 33.532 122.724 32.8907 123.366 32.44C124.007 31.9893 124.882 31.764 125.992 31.764C127.101 31.764 127.968 31.9893 128.592 32.44C129.233 32.8907 129.684 33.532 129.944 34.364C130.221 35.196 130.36 36.1753 130.36 37.302V41.67C130.36 42.7967 130.221 43.776 129.944 44.608C129.684 45.44 129.233 46.0813 128.592 46.532C127.968 46.9827 127.101 47.208 125.992 47.208ZM125.992 45.154C126.529 45.154 126.902 44.998 127.11 44.686C127.335 44.374 127.465 43.9667 127.5 43.464C127.552 42.944 127.578 42.4067 127.578 41.852V37.146C127.578 36.574 127.552 36.0367 127.5 35.534C127.465 35.0313 127.335 34.624 127.11 34.312C126.902 33.9827 126.529 33.818 125.992 33.818C125.454 33.818 125.073 33.9827 124.848 34.312C124.622 34.624 124.484 35.0313 124.432 35.534C124.397 36.0367 124.38 36.574 124.38 37.146V41.852C124.38 42.4067 124.397 42.944 124.432 43.464C124.484 43.9667 124.622 44.374 124.848 44.686C125.073 44.998 125.454 45.154 125.992 45.154Z" fill="#E2E2E2"/>
<path d="M134.441 47L132.023 31.972H134.311L135.871 43.048L137.873 31.972H140.005L142.007 42.996L143.567 31.972H145.855L143.359 47H141.019L138.965 36.392L136.937 47H134.441Z" fill="#E2E2E2"/>
<path d="M147.985 47V31.972H150.767V33.454C151.269 32.986 151.824 32.5873 152.431 32.258C153.037 31.9287 153.705 31.764 154.433 31.764C155.039 31.764 155.499 31.92 155.811 32.232C156.14 32.544 156.365 32.934 156.487 33.402C156.625 33.87 156.695 34.3467 156.695 34.832V47H153.913V35.638C153.913 35.1007 153.835 34.6847 153.679 34.39C153.523 34.0953 153.202 33.948 152.717 33.948C152.405 33.948 152.075 34.0433 151.729 34.234C151.399 34.4073 151.078 34.624 150.767 34.884V47H147.985Z" fill="#E2E2E2"/>
<defs>
<clipPath id="clip0">
<rect width="48" height="70" fill="white" transform="translate(0.600098)"/>
</clipPath>
</defs>
</svg>
