<svg width="248" height="108" viewBox="0 0 248 108" fill="none" xmlns="http://www.w3.org/2000/svg">
<path d="M13.9982 39.2896C25.2677 78.624 -33.0397 78.624 34.0873 86.299C87.7888 92.439 68.2224 101.649 51.7265 105.487" stroke="#E2E2E2" stroke-width="0.5"/>
<path d="M31.6733 0.674622C43.874 45.6484 -10.8678 68.5698 61.8061 77.3452C119.945 84.3655 103.58 102.938 85.721 107.325" stroke="#E2E2E2" stroke-width="0.5"/>
<path d="M16.7341 33.7731C27.8827 73.8164 -28.6043 77.017 37.8029 84.8303C90.9286 91.081 72.2589 101.58 55.9399 105.487" stroke="#E2E2E2" stroke-width="0.5"/>
<path d="M18.2784 28.2567C29.9063 69.0027 -27.8003 75.4116 41.4618 83.362C96.8715 89.7224 78.0939 101.511 61.0733 105.487" stroke="#E2E2E2" stroke-width="0.5"/>
<path d="M21.3483 22.7403C33.1519 64.1837 -24.2357 73.8074 46.0725 81.8939C102.319 88.3631 83.942 101.443 66.6643 105.487" stroke="#E2E2E2" stroke-width="0.5"/>
<path d="M24.1733 17.2239C35.8581 59.3606 -19.8081 72.2042 49.7927 80.426C105.473 87.0035 87.9386 101.376 70.8348 105.487" stroke="#E2E2E2" stroke-width="0.5"/>
<path d="M25.6724 11.7075C37.8205 54.5342 -18.898 70.602 53.4627 78.9584C111.351 85.6435 93.785 101.308 76.0029 105.487" stroke="#E2E2E2" stroke-width="0.5"/>
<path d="M28.7664 6.19098C41.0837 49.7047 -15.2868 69.0002 58.0814 77.4907C116.776 84.2831 99.6189 101.241 81.5893 105.487" stroke="#E2E2E2" stroke-width="0.5"/>
<rect x="47.4" y="63" width="173" height="1" fill="#E2E2E2"/>
<path d="M67.2522 29.1914C67.2522 31.4942 66.6152 33.2788 65.341 34.5453C64.0669 35.8118 62.619 36.5602 60.9974 36.7905L66.2098 49.5707C66.4414 50.0312 66.6731 50.3766 66.9048 50.6069C67.2522 50.722 67.5997 50.7796 67.9472 50.7796H68.9897V51.8158H64.1248L58.3912 36.9632H54.3951V49.398C54.3951 49.8585 54.5109 50.2039 54.7426 50.4342C55.0901 50.6645 55.4955 50.7796 55.9588 50.7796H57.0013V51.8158H49.009V50.7796H50.0514C50.6306 50.7796 51.036 50.6645 51.2677 50.4342C51.4993 50.2039 51.6152 49.8585 51.6152 49.398V24.7011C51.6152 24.2405 51.4993 23.8951 51.2677 23.6648C51.036 23.4346 50.6306 23.3194 50.0514 23.3194H49.009V22.2832H58.9125C61.5766 22.2832 63.6036 22.8589 64.9936 24.0103C66.4993 25.1616 67.2522 26.8887 67.2522 29.1914ZM54.3951 35.9269H58.2175C59.9549 35.9269 61.4028 35.4088 62.5611 34.3726C63.7194 33.3364 64.2986 31.7244 64.2986 29.5368C64.2986 27.5795 63.7773 26.0827 62.7349 25.0465C61.6924 23.8951 60.0708 23.3194 57.87 23.3194H55.9588C55.4955 23.3194 55.0901 23.4346 54.7426 23.6648C54.5109 23.8951 54.3951 24.2405 54.3951 24.7011V35.9269Z" fill="#E2E2E2"/>
<path d="M90.0129 42.1443C90.0129 45.0228 89.1442 47.4406 87.4067 49.398C85.6693 51.2402 83.5264 52.1613 80.9781 52.1613C78.314 52.1613 76.1133 51.1826 74.3758 49.2253C72.7542 47.2679 71.9434 44.9076 71.9434 42.1443C71.9434 39.6113 72.7542 37.3086 74.3758 35.2361C76.1133 33.1636 78.314 32.1274 80.9781 32.1274C83.7581 32.1274 85.9588 33.1636 87.5805 35.2361C89.2021 37.3086 90.0129 39.6113 90.0129 42.1443ZM74.7233 42.317C74.7233 45.3106 75.3025 47.5558 76.4608 49.0526C77.7349 50.4342 79.2407 51.125 80.9781 51.125C82.9473 51.125 84.453 50.3766 85.4955 48.8799C86.6538 47.2679 87.233 45.0803 87.233 42.317C87.233 39.3235 86.5959 37.0783 85.3218 35.5815C84.1635 33.9696 82.7156 33.1636 80.9781 33.1636C79.3565 33.1636 77.9086 33.9696 76.6345 35.5815C75.3604 37.0783 74.7233 39.3235 74.7233 42.317Z" fill="#E2E2E2"/>
<path d="M100.611 51.9886C98.5264 51.9886 96.9048 51.528 95.7465 50.6069C94.5882 49.5707 94.009 48.4193 94.009 47.1528C94.009 45.0803 94.8778 43.4108 96.6152 42.1443C98.4685 40.7627 102.059 39.784 107.387 39.2083V37.1359C107.387 35.9845 107.098 35.0634 106.519 34.3726C106.055 33.5666 104.897 33.1636 103.044 33.1636C101.075 33.1636 99.6847 33.5091 98.8739 34.1999C98.0631 34.7756 97.7735 35.4088 98.0052 36.0996C98.121 36.3299 98.1789 36.5602 98.1789 36.7905C98.1789 37.0207 98.0631 37.3086 97.8314 37.654C97.7156 37.9994 97.3102 38.1721 96.6152 38.1721C96.1519 38.1721 95.7465 38.057 95.399 37.8267C95.1674 37.4813 95.0515 37.0207 95.0515 36.4451C95.0515 35.4088 95.8044 34.4302 97.3102 33.5091C98.816 32.588 100.669 32.1274 102.87 32.1274C105.187 32.1274 106.924 32.588 108.082 33.5091C109.241 34.315 109.82 35.524 109.82 37.1359V48.5344C109.82 49.4555 109.878 50.0312 109.994 50.2615C110.225 50.3766 110.573 50.4342 111.036 50.4342C111.615 50.4342 112.021 50.2039 112.252 49.7434C112.484 49.1677 112.6 48.4193 112.6 47.4982H113.469C113.469 49.1101 113.179 50.2615 112.6 50.9523C112.021 51.528 111.268 51.8158 110.341 51.8158C109.53 51.8158 108.893 51.6431 108.43 51.2977C107.967 50.9523 107.619 50.3766 107.387 49.5707C106.229 50.3766 105.129 51.0099 104.086 51.4704C103.16 51.8158 102.001 51.9886 100.611 51.9886ZM96.9627 46.6347C96.9627 47.6709 97.2523 48.6496 97.8314 49.5707C98.5264 50.3766 99.5689 50.7796 100.959 50.7796C102.001 50.7796 103.044 50.6069 104.086 50.2615C105.129 49.8009 106.229 49.1677 107.387 48.3617V40.2446C103.449 40.7051 100.727 41.5111 99.2214 42.6625C97.7156 43.6987 96.9627 45.0228 96.9627 46.6347Z" fill="#E2E2E2"/>
<path d="M130.322 36.2723C129.743 35.3512 128.99 34.718 128.063 34.3726C127.137 33.912 126.21 33.6818 125.283 33.6818C123.546 33.6818 122.156 34.4877 121.113 36.0996C120.187 37.7116 119.723 39.8416 119.723 42.4897C119.723 45.253 120.187 47.3255 121.113 48.7071C122.04 49.9737 123.372 50.6069 125.109 50.6069C126.384 50.6069 127.426 50.2039 128.237 49.398C129.164 48.592 129.859 47.3831 130.322 45.7712V36.2723ZM124.588 51.9886C122.503 51.9886 120.708 51.1826 119.202 49.5707C117.696 47.8436 116.943 45.3682 116.943 42.1443C116.943 39.1508 117.754 36.7905 119.376 35.0634C120.998 33.2212 122.909 32.3001 125.109 32.3001C126.036 32.3001 126.963 32.5304 127.889 32.9909C128.932 33.3364 129.743 33.912 130.322 34.718V25.3919C130.322 24.7011 130.206 24.183 129.974 23.8375C129.743 23.4921 129.337 23.3194 128.758 23.3194H127.368V22.2832H129.279C129.859 22.2832 130.438 22.1681 131.017 21.9378C131.596 21.7075 132.175 21.3621 132.754 20.9016V48.189C132.754 48.7647 132.87 49.1677 133.102 49.398C133.333 49.6282 133.681 49.7434 134.144 49.7434H135.36V50.7796H134.318C133.855 50.7796 133.276 50.8947 132.581 51.125C132.001 51.2402 131.364 51.4704 130.669 51.8158H130.322V48.5344C129.743 49.5707 128.932 50.4342 127.889 51.125C126.963 51.7007 125.862 51.9886 124.588 51.9886Z" fill="#E2E2E2"/>
<path d="M163.16 37.4813C163.16 35.7542 163.797 34.4302 165.071 33.5091C166.461 32.588 168.083 32.1274 169.936 32.1274C170.978 32.1274 171.963 32.2425 172.889 32.4728C173.816 32.8182 174.453 32.9909 174.801 32.9909C175.148 32.9909 175.438 32.9334 175.669 32.8182C175.901 32.7031 176.191 32.4728 176.538 32.1274L177.233 37.8267L176.191 37.9994C175.727 36.5026 174.917 35.3512 173.758 34.5453C172.716 33.6242 171.5 33.1636 170.11 33.1636C168.604 33.1636 167.388 33.4515 166.461 34.0272C165.65 34.6029 165.245 35.4088 165.245 36.4451C165.245 37.3661 165.418 38.1145 165.766 38.6902C166.229 39.1508 166.982 39.4962 168.025 39.7265C168.835 40.0719 169.878 40.4173 171.152 40.7627C172.31 41.2232 173.411 41.6838 174.453 42.1443C175.38 42.6049 176.133 43.2381 176.712 44.0441C177.407 44.7349 177.754 45.5409 177.754 46.462C177.754 48.189 177.117 49.5707 175.843 50.6069C174.685 51.528 172.947 51.9886 170.631 51.9886C169.125 51.9886 168.025 51.8158 167.33 51.4704C166.519 51.2402 165.882 51.125 165.418 51.125C165.071 51.125 164.666 51.2402 164.202 51.4704C163.855 51.5856 163.449 51.7583 162.986 51.9886L162.465 45.5984L163.507 45.4257C163.855 47.2679 164.608 48.6496 165.766 49.5707C166.924 50.4918 168.546 50.9523 170.631 50.9523C172.252 50.9523 173.469 50.6645 174.279 50.0888C175.206 49.5131 175.669 48.6496 175.669 47.4982C175.669 46.6922 175.438 46.059 174.974 45.5984C174.511 45.0228 174.048 44.6198 173.584 44.3895C172.426 43.929 171.152 43.4108 169.762 42.8352C168.372 42.3746 167.156 41.9141 166.113 41.4535C165.071 40.993 164.318 40.4173 163.855 39.7265C163.391 39.0356 163.16 38.2872 163.16 37.4813Z" fill="#E2E2E2"/>
<path d="M187.484 22.2832C188.527 22.2832 189.511 22.1681 190.438 21.9378C191.364 21.7075 192.233 21.3621 193.044 20.9016H193.391V49.398C193.391 49.8585 193.507 50.2039 193.739 50.4342C194.086 50.6645 194.492 50.7796 194.955 50.7796H198.951V51.8158H185.399V50.7796H189.395C189.974 50.7796 190.38 50.6645 190.612 50.4342C190.843 50.2039 190.959 49.8585 190.959 49.398V24.7011C190.959 24.2405 190.843 23.8951 190.612 23.6648C190.38 23.4346 189.974 23.3194 189.395 23.3194H185.573V22.2832H187.484Z" fill="#E2E2E2"/>
<path d="M213.198 35.0634C213.198 34.6029 213.083 34.2574 212.851 34.0272C212.619 33.6818 212.214 33.5091 211.635 33.5091H207.986V32.4728H209.724C210.766 32.4728 211.751 32.4153 212.677 32.3001C213.604 32.0698 214.473 31.7244 215.283 31.2639H215.631V49.398C215.631 49.8585 215.747 50.2039 215.978 50.4342C216.326 50.6645 216.731 50.7796 217.195 50.7796H220.843V51.8158H207.986V50.7796H211.635C212.214 50.7796 212.619 50.6645 212.851 50.4342C213.083 50.2039 213.198 49.8585 213.198 49.398V35.0634ZM214.588 21.9378C215.168 21.9378 215.689 22.1681 216.152 22.6286C216.615 22.974 216.847 23.4346 216.847 24.0103C216.847 24.5859 216.615 25.1041 216.152 25.5646C215.689 26.0251 215.168 26.2554 214.588 26.2554C214.009 26.2554 213.488 26.0251 213.025 25.5646C212.561 25.1041 212.33 24.5859 212.33 24.0103C212.33 23.4346 212.561 22.974 213.025 22.6286C213.488 22.1681 214.009 21.9378 214.588 21.9378Z" fill="#E2E2E2"/>
<path d="M226.751 32.4728C227.33 32.4728 227.909 32.4153 228.488 32.3001C229.067 32.185 229.531 32.0123 229.878 31.782H230.225V34.718C230.805 33.7969 231.442 33.1636 232.137 32.8182C232.832 32.3577 233.585 32.1274 234.395 32.1274C235.438 32.1274 236.249 32.3577 236.828 32.8182C237.407 33.1636 237.754 33.7969 237.87 34.718C238.449 33.7969 239.087 33.1636 239.781 32.8182C240.592 32.3577 241.403 32.1274 242.214 32.1274C243.604 32.1274 244.531 32.5304 244.994 33.3364C245.573 34.1423 245.863 35.1785 245.863 36.4451V49.5707C245.863 50.0312 245.978 50.3766 246.21 50.6069C246.442 50.722 246.789 50.7796 247.253 50.7796H247.6V51.8158H241.693V50.7796H242.04C242.504 50.7796 242.851 50.722 243.083 50.6069C243.314 50.3766 243.43 50.0312 243.43 49.5707V36.6178C243.43 35.3512 243.256 34.5453 242.909 34.1999C242.677 33.7393 242.272 33.5091 241.693 33.5091C240.882 33.5091 240.129 33.7969 239.434 34.3726C238.855 34.9483 238.392 35.7542 238.044 36.7905V49.5707C238.044 50.0312 238.16 50.3766 238.392 50.6069C238.623 50.722 238.971 50.7796 239.434 50.7796H239.781V51.8158H233.874V50.7796H234.222C234.685 50.7796 235.032 50.722 235.264 50.6069C235.496 50.3766 235.612 50.0312 235.612 49.5707V36.6178C235.612 35.5815 235.496 34.8331 235.264 34.3726C235.032 33.7969 234.569 33.5091 233.874 33.5091C233.063 33.5091 232.31 33.7969 231.615 34.3726C231.036 34.9483 230.573 35.8118 230.225 36.9632V49.5707C230.225 50.0312 230.341 50.3766 230.573 50.6069C230.805 50.722 231.152 50.7796 231.615 50.7796H231.963V51.8158H226.056V50.7796H226.403C226.866 50.7796 227.214 50.722 227.446 50.6069C227.677 50.3766 227.793 50.0312 227.793 49.5707V34.5453C227.793 34.1999 227.735 33.9696 227.619 33.8545C227.503 33.6242 227.272 33.5091 226.924 33.5091H226.229V32.4728H226.751Z" fill="#E2E2E2"/>
</svg>
