<svg width="52" height="94" viewBox="0 0 52 94" fill="none" xmlns="http://www.w3.org/2000/svg">
<path fill-rule="evenodd" clip-rule="evenodd" d="M12.672 27.928C10.624 25.368 9.6 22.3387 9.6 18.84C9.6 13.976 11.008 10.0934 13.824 7.19203C16.64 4.2907 20.1387 2.84003 24.32 2.84003C29.44 2.84003 33.7493 4.71736 37.248 8.47203C40.7467 12.1414 43.4773 17.5174 45.44 24.6H47.36C47.1893 23.32 47.0613 21.9974 46.976 20.632C46.8907 19.4374 46.8053 18.1574 46.72 16.792V12.44V8.60003C46.8053 7.2347 46.8907 5.9547 46.976 4.76003C47.0613 3.48003 47.1893 2.20003 47.36 0.92003H45.44C44.16 1.26136 42.9227 1.9867 41.728 3.09603C40.6187 4.20537 39.7227 5.40003 39.04 6.68003C37.76 5.48537 36.352 4.4187 34.816 3.48003C33.4507 2.71203 31.7867 1.9867 29.824 1.30403C27.8613 0.621365 25.6 0.280029 23.04 0.280029C19.968 0.280029 17.1093 0.834696 14.464 1.94403C11.8187 3.05336 9.51467 4.58937 7.552 6.55204C5.58933 8.42937 4.05333 10.648 2.944 13.208C1.83467 15.768 1.28 18.4987 1.28 21.4C1.28 26.4347 2.304 30.7014 4.352 34.2C4.49898 34.4511 4.64859 34.7 4.80084 34.9467H20.5059C20.4545 34.9112 20.4032 34.8756 20.352 34.84C17.28 32.7067 14.72 30.4027 12.672 27.928ZM49.0178 58.9467H35.199C36.9489 60.4221 38.4852 61.9866 39.808 63.64C41.856 66.1147 42.88 69.1014 42.88 72.6C42.88 78.4027 41.2587 82.968 38.016 86.296C34.8587 89.5387 30.72 91.16 25.6 91.16C19.2 91.16 14.1227 89.3254 10.368 85.656C6.69867 81.9014 3.88267 76.4827 1.92 69.4H0C0.0853335 70.68 0.170667 72.0027 0.256 73.368C0.341334 74.5627 0.426667 75.8854 0.512 77.336C0.597334 78.7014 0.64 80.1094 0.64 81.56C0.64 82.84 0.597334 84.1627 0.512 85.528C0.426667 86.8934 0.341334 88.1307 0.256 89.24C0.170667 90.6054 0.0853335 91.8854 0 93.08H1.92C3.2 92.7387 4.39467 92.0134 5.504 90.904C6.69867 89.7947 7.63733 88.6 8.32 87.32C9.51467 88.5147 11.008 89.5814 12.8 90.52C14.336 91.3734 16.256 92.0987 18.56 92.696C20.864 93.3787 23.6373 93.72 26.88 93.72C30.3787 93.72 33.6213 93.1227 36.608 91.928C39.5947 90.7334 42.1547 89.0694 44.288 86.936C46.5067 84.8027 48.2133 82.2854 49.408 79.384C50.6027 76.4827 51.2 73.368 51.2 70.04C51.2 65.7967 50.4726 62.0989 49.0178 58.9467Z" fill="#E2E2E2"/>
<path d="M1.38511 41.9958C1.38511 42.5471 1.53285 43.0245 1.82834 43.428C2.12383 43.818 2.4932 44.1811 2.93643 44.5173C3.37967 44.8535 3.85984 45.183 4.37694 45.5057C4.90636 45.8285 5.39269 46.1983 5.83593 46.6152C6.27916 47.0186 6.64852 47.496 6.94401 48.0474C7.2395 48.5988 7.38725 49.2712 7.38725 50.0646C7.38725 50.5891 7.30106 51.0799 7.12869 51.5372C6.95633 51.9944 6.71008 52.3911 6.38997 52.7273C6.08217 53.0635 5.7128 53.3258 5.28188 53.5141C4.85096 53.7023 4.3831 53.7965 3.8783 53.7965C3.41045 53.7965 3.0103 53.7427 2.67788 53.6351C2.34545 53.5409 2.06843 53.4266 1.84681 53.2922C1.58826 53.1442 1.3728 52.9761 1.20043 52.7879C1.10193 52.9896 0.966498 53.1779 0.794129 53.3527C0.634072 53.5275 0.461703 53.6418 0.277022 53.6956H0C0.0123121 53.5073 0.0246242 53.3056 0.0369362 53.0904C0.0492483 52.9156 0.0615605 52.7206 0.0738725 52.5054C0.0861846 52.2903 0.0923406 52.0818 0.0923406 51.8801C0.0923406 51.6515 0.0861846 51.4296 0.0738725 51.2144C0.0615605 50.9858 0.0492483 50.7774 0.0369362 50.5891C0.0246242 50.3739 0.0123121 50.1655 0 49.9638H0.277022C0.5602 51.0799 0.966498 51.9339 1.49592 52.5256C2.03765 53.1039 2.77022 53.393 3.69362 53.393C4.43235 53.393 5.02948 53.1375 5.48503 52.6265C5.95289 52.102 6.18682 51.3825 6.18682 50.4681C6.18682 49.9167 6.03907 49.446 5.74359 49.056C5.4481 48.6526 5.07873 48.2827 4.6355 47.9465C4.19226 47.6103 3.70594 47.2809 3.17652 46.9581C2.65941 46.6354 2.17924 46.2723 1.736 45.8688C1.29277 45.4519 0.923406 44.9678 0.627916 44.4164C0.332426 43.865 0.184681 43.1926 0.184681 42.3992C0.184681 41.942 0.26471 41.5116 0.424767 41.1082C0.584824 40.7047 0.806441 40.3551 1.08962 40.0592C1.3728 39.7499 1.70522 39.5079 2.0869 39.333C2.46857 39.1582 2.88103 39.0708 3.32426 39.0708C3.69362 39.0708 4.01989 39.1246 4.30307 39.2322C4.58625 39.3398 4.82633 39.4541 5.02333 39.5751C5.24495 39.723 5.4481 39.8911 5.63278 40.0794C5.73127 39.8777 5.86055 39.6894 6.02061 39.5146C6.19298 39.3398 6.3715 39.2255 6.55618 39.1717H6.8332C6.80858 39.3734 6.79011 39.5751 6.7778 39.7768C6.76549 39.9651 6.75318 40.1668 6.74086 40.382C6.74086 40.5837 6.74086 40.7854 6.74086 40.9872C6.74086 41.2158 6.74086 41.4444 6.74086 41.673C6.75318 41.8882 6.76549 42.0899 6.7778 42.2782C6.79011 42.4933 6.80858 42.7018 6.8332 42.9035H6.55618C6.273 41.7873 5.87902 40.9401 5.37422 40.3618C4.86943 39.7701 4.24767 39.4742 3.50894 39.4742C2.90565 39.4742 2.40086 39.7029 1.99456 40.1601C1.58826 40.6173 1.38511 41.2292 1.38511 41.9958Z" fill="#E2E2E2"/>
<path d="M18.0959 44.719V52.9896L19.204 53.2922V53.4939H16.6184V52.2836C16.483 52.566 16.3106 52.8215 16.1013 53.0501C15.9289 53.2384 15.7073 53.4065 15.4365 53.5544C15.1779 53.7158 14.8639 53.7965 14.4946 53.7965C14.1252 53.7965 13.7805 53.7225 13.4604 53.5746C13.1526 53.4266 12.8817 53.2249 12.6478 52.9694C12.4138 52.7004 12.2292 52.3844 12.0937 52.0213C11.9706 51.6448 11.909 51.2279 11.909 50.7706V44.719L10.801 44.4164V44.2147H14.4022V44.4164L13.3865 44.719V50.7706C13.3865 51.7255 13.5219 52.4046 13.7928 52.808C14.076 53.198 14.4022 53.393 14.7716 53.393C15.0671 53.393 15.3257 53.2989 15.5473 53.1106C15.7812 52.9223 15.9782 52.7139 16.1382 52.4853C16.3229 52.2298 16.483 51.9272 16.6184 51.5775V44.719L15.6027 44.4164V44.2147H19.204V44.4164L18.0959 44.719Z" fill="#E2E2E2"/>
<path d="M24.1882 52.9896V44.719L23.0801 44.4164V44.2147H25.6656V45.425C25.7888 45.1561 25.955 44.9073 26.1643 44.6787C26.3366 44.4904 26.5583 44.3156 26.8291 44.1542C27.1 43.9928 27.4201 43.9121 27.7895 43.9121C28.1588 43.9121 28.4974 43.9861 28.8052 44.134C29.1253 44.2819 29.4023 44.4904 29.6363 44.7593C29.8702 45.0149 30.0487 45.3309 30.1719 45.7074C30.3073 46.0705 30.375 46.4807 30.375 46.9379V52.9896L31.4831 53.2922V53.4939H27.8818V53.2922L28.8976 52.9896V46.9379C28.8976 45.9831 28.756 45.3107 28.4728 44.9207C28.2019 44.5173 27.8818 44.3156 27.5124 44.3156C27.2046 44.3156 26.9399 44.4097 26.7183 44.598C26.4967 44.7862 26.3059 44.9947 26.1458 45.2233C25.9611 45.4923 25.8011 45.7948 25.6656 46.1311V52.9896L26.6814 53.2922V53.4939H23.0801V53.2922L24.1882 52.9896Z" fill="#E2E2E2"/>
<path d="M39.8796 44.2147V44.6181H37.7558V51.0531C37.7558 51.8734 37.8912 52.4718 38.1621 52.8484C38.4329 53.2115 38.7284 53.393 39.0485 53.393C39.4671 53.393 39.818 53.2249 40.1012 52.8887C40.3967 52.5391 40.5691 52.0348 40.6183 51.3758H40.8953C40.8461 52.1423 40.6306 52.7408 40.249 53.1711C39.8796 53.588 39.4179 53.7965 38.8638 53.7965C38.0759 53.7965 37.448 53.5477 36.9801 53.0501C36.5122 52.5391 36.2783 51.8801 36.2783 51.0732V44.6181H34.7085V44.2147H36.2783V41.8949L37.7558 40.7854V44.2147H39.8796Z" fill="#E2E2E2"/>
<path d="M45.9871 48.8543C45.9871 49.715 46.0425 50.4344 46.1533 51.0127C46.2764 51.591 46.4303 52.0617 46.615 52.4248C46.812 52.7744 47.0274 53.0232 47.2614 53.1711C47.5076 53.3191 47.76 53.393 48.0185 53.393C48.3387 53.393 48.6403 53.3258 48.9235 53.1913C49.2067 53.0568 49.4591 52.8753 49.6807 52.6467C49.9023 52.418 50.0808 52.1423 50.2163 51.8196C50.364 51.4968 50.4625 51.1472 50.5117 50.7706H50.7888C50.7395 51.201 50.6287 51.6044 50.4563 51.981C50.2963 52.3441 50.087 52.6601 49.8284 52.9291C49.5699 53.198 49.2682 53.4065 48.9235 53.5544C48.5911 53.7158 48.2279 53.7965 47.8339 53.7965C47.366 53.7965 46.9228 53.6889 46.5042 53.4737C46.0855 53.2451 45.71 52.9223 45.3776 52.5054C45.0575 52.0751 44.7989 51.5574 44.6019 50.9522C44.4173 50.3336 44.3249 49.6343 44.3249 48.8543C44.3249 48.0474 44.4173 47.3347 44.6019 46.716C44.7866 46.0974 45.0267 45.5864 45.3222 45.183C45.63 44.7661 45.9809 44.45 46.3749 44.2349C46.7812 44.0197 47.206 43.9121 47.6492 43.9121C48.0924 43.9121 48.511 44.0197 48.905 44.2349C49.3113 44.45 49.6622 44.7661 49.9577 45.183C50.2655 45.5864 50.5117 46.0974 50.6964 46.716C50.8811 47.3347 50.9734 48.0474 50.9734 48.8543H45.9871ZM47.6492 44.2147C47.4645 44.2147 47.2798 44.2819 47.0951 44.4164C46.9105 44.5375 46.7381 44.7593 46.578 45.0821C46.418 45.4049 46.2825 45.8419 46.1717 46.3933C46.0732 46.9312 46.0117 47.6171 45.9871 48.4508H49.3113C49.2867 47.6171 49.219 46.9312 49.1082 46.3933C49.0097 45.8419 48.8804 45.4049 48.7203 45.0821C48.5603 44.7593 48.3879 44.5375 48.2032 44.4164C48.0185 44.2819 47.8339 44.2147 47.6492 44.2147Z" fill="#E2E2E2"/>
</svg>
