<svg width="109" height="108" viewBox="0 0 109 108" fill="none" xmlns="http://www.w3.org/2000/svg">
<path d="M53.0511 2.68301C53.2902 2.82108 53.596 2.73915 53.7341 2.5L54.6001 1L55.4661 2.50001C55.6042 2.73915 55.91 2.82109 56.1491 2.68302L58.2472 6.31699C58.0081 6.45506 57.9261 6.76086 58.0642 7L60.6623 11.5C60.8004 11.7392 61.1061 11.8211 61.3453 11.683L63.4434 15.317C63.2042 15.4551 63.1223 15.7609 63.2604 16L65.8584 20.5C65.9965 20.7392 66.3023 20.8211 66.5414 20.683L68.6395 24.317C68.4004 24.4551 68.3184 24.7609 68.4565 25L71.0546 29.5C71.1927 29.7392 71.4985 29.8211 71.7376 29.683L73.8357 33.317C73.5965 33.4551 73.5146 33.7609 73.6527 34L76.2507 38.5C76.3888 38.7392 76.6946 38.8211 76.9337 38.683L79.0318 42.317C78.7927 42.4551 78.7107 42.7609 78.8488 43L81.4469 47.5C81.585 47.7392 81.8908 47.8211 82.1299 47.683L84.228 51.317C83.9888 51.4551 83.9069 51.7609 84.045 52L86.643 56.5C86.7811 56.7391 87.0869 56.8211 87.326 56.683L89.4241 60.317C89.185 60.4551 89.103 60.7609 89.2411 61L91.8392 65.5C91.9773 65.7391 92.2831 65.8211 92.5222 65.683L94.6203 69.317C94.3811 69.4551 94.2992 69.7609 94.4373 70L97.0353 74.5C97.1734 74.7391 97.4792 74.8211 97.7184 74.683L99.8164 78.317C99.5773 78.4551 99.4953 78.7609 99.6334 79L100.499 80.5H98.7674C98.4912 80.5 98.2674 80.7239 98.2674 81H94.0712C94.0712 80.7239 93.8474 80.5 93.5712 80.5H88.3751C88.0989 80.5 87.8751 80.7239 87.8751 81H83.6789C83.6789 80.7239 83.4551 80.5 83.1789 80.5H77.9828C77.7066 80.5 77.4828 80.7239 77.4828 81H73.2866C73.2866 80.7239 73.0628 80.5 72.7866 80.5H67.5905C67.3143 80.5 67.0905 80.7239 67.0905 81H62.8943C62.8943 80.7239 62.6705 80.5 62.3943 80.5H57.1982C56.922 80.5 56.6982 80.7239 56.6982 81H52.502C52.502 80.7239 52.2782 80.5 52.002 80.5H46.8059C46.5297 80.5 46.3059 80.7239 46.3059 81H42.1097C42.1097 80.7239 41.8859 80.5 41.6097 80.5H36.4136C36.1374 80.5 35.9136 80.7239 35.9136 81H31.7174C31.7174 80.7239 31.4936 80.5 31.2174 80.5H26.0213C25.7451 80.5 25.5213 80.7239 25.5213 81H21.3251C21.3251 80.7239 21.1012 80.5 20.8251 80.5H15.629C15.3528 80.5 15.129 80.7239 15.129 81H10.9328C10.9328 80.7239 10.7089 80.5 10.4328 80.5H8.70075L9.56678 79C9.70485 78.7608 9.62291 78.4551 9.38377 78.317L11.4818 74.683C11.721 74.8211 12.0268 74.7391 12.1649 74.5L14.7629 70C14.901 69.7608 14.8191 69.4551 14.5799 69.317L16.678 65.683C16.9171 65.8211 17.2229 65.7391 17.361 65.5L19.9591 61C20.0972 60.7608 20.0152 60.4551 19.7761 60.317L21.8741 56.683C22.1133 56.8211 22.4191 56.7391 22.5572 56.5L25.1552 52C25.2933 51.7608 25.2114 51.4551 24.9722 51.317L27.0703 47.683C27.3094 47.8211 27.6152 47.7391 27.7533 47.5L30.3514 43C30.4895 42.7608 30.4075 42.4551 30.1684 42.317L32.2665 38.683C32.5056 38.8211 32.8114 38.7391 32.9495 38.5L35.5475 34C35.6856 33.7608 35.6037 33.4551 35.3645 33.317L37.4626 29.683C37.7017 29.8211 38.0075 29.7391 38.1456 29.5L40.7437 25C40.8818 24.7609 40.7998 24.4551 40.5607 24.317L42.6588 20.683C42.8979 20.8211 43.2037 20.7391 43.3418 20.5L45.9398 16C46.0779 15.7609 45.996 15.4551 45.7568 15.317L47.8549 11.683C48.0941 11.8211 48.3998 11.7391 48.5379 11.5L51.136 7C51.2741 6.76085 51.1921 6.45506 50.953 6.31699L53.0511 2.68301Z" stroke="#E2E2E2" stroke-linecap="round" stroke-linejoin="round" stroke-dasharray="5 5"/>
<path d="M64.9569 41.507V46.798L62.6259 47.094C62.3053 46.8474 61.9969 46.3294 61.7009 45.54H57.2609V62.708C58.2476 63.1027 58.9259 63.5097 59.2959 63.929L58.9259 67H50.2679L49.8979 63.929C50.2186 63.5097 50.8969 63.1027 51.9329 62.708V45.54H47.4929C47.1969 46.3294 46.8886 46.8474 46.5679 47.094L44.2369 46.798V41.507H64.9569Z" fill="#E2E2E2"/>
</svg>
