<svg width="91" height="71" viewBox="0 0 91 71" fill="none" xmlns="http://www.w3.org/2000/svg">
<g clipPath="url(#clip0)">
<path d="M9.17133 53.6513C10.0868 53.6513 10.8793 53.8029 11.5486 54.1059C12.2279 54.409 12.7496 54.8391 13.1139 55.3963C13.478 55.9534 13.6601 56.6132 13.6601 57.3757C13.6601 58.1283 13.478 58.7883 13.1139 59.3551C12.7496 59.9124 12.2279 60.3424 11.5486 60.6455C10.8793 60.9387 10.0868 61.0853 9.17133 61.0853H7.08934V63.9152H4.69727V53.6513H9.17133ZM9.03845 59.1498C9.75705 59.1498 10.3034 58.9984 10.6775 58.6953C11.0515 58.3825 11.2386 57.9427 11.2386 57.3757C11.2386 56.799 11.0515 56.359 10.6775 56.056C10.3034 55.7433 9.75705 55.5868 9.03845 55.5868H7.08934V59.1498H9.03845Z" fill="#3D3C44"/>
<path d="M17.4056 57.0677C17.6813 56.6865 18.0504 56.3981 18.513 56.2027C18.9856 56.0071 19.527 55.9094 20.1373 55.9094V58.0208C19.8814 58.0013 19.709 57.9915 19.6205 57.9915C18.961 57.9915 18.4441 58.1773 18.0701 58.5487C17.696 58.9104 17.509 59.4579 17.509 60.191V63.9152H15.2054V56.0268H17.4056V57.0677Z" fill="#3D3C44"/>
<path d="M25.2149 64.0326C24.3783 64.0326 23.6252 63.8615 22.9558 63.5193C22.2962 63.1674 21.7794 62.6836 21.4053 62.0677C21.0313 61.4519 20.8442 60.753 20.8442 59.971C20.8442 59.189 21.0313 58.4901 21.4053 57.8742C21.7794 57.2584 22.2962 56.7795 22.9558 56.4373C23.6252 56.0854 24.3783 55.9094 25.2149 55.9094C26.0516 55.9094 26.7998 56.0854 27.4594 56.4373C28.1189 56.7795 28.6358 57.2584 29.0098 57.8742C29.3839 58.4901 29.5708 59.189 29.5708 59.971C29.5708 60.753 29.3839 61.4519 29.0098 62.0677C28.6358 62.6836 28.1189 63.1674 27.4594 63.5193C26.7998 63.8615 26.0516 64.0326 25.2149 64.0326ZM25.2149 62.1557C25.8055 62.1557 26.288 61.9602 26.662 61.5693C27.0459 61.1684 27.2379 60.6357 27.2379 59.971C27.2379 59.3063 27.0459 58.7785 26.662 58.3874C26.288 57.9866 25.8055 57.7863 25.2149 57.7863C24.6243 57.7863 24.137 57.9866 23.7531 58.3874C23.3692 58.7785 23.1772 59.3063 23.1772 59.971C23.1772 60.6357 23.3692 61.1684 23.7531 61.5693C24.137 61.9602 24.6243 62.1557 25.2149 62.1557Z" fill="#3D3C44"/>
<path d="M33.6355 56.2027H35.6732V57.9622H33.6946V63.9152H31.3911V57.9622H30.1656V56.2027H31.3911V55.8508C31.3911 54.9514 31.6569 54.2379 32.1885 53.7101C32.7298 53.1822 33.4879 52.9182 34.4625 52.9182C34.807 52.9182 35.1318 52.9573 35.437 53.0356C35.7519 53.104 36.0129 53.2066 36.2196 53.3435L35.6141 55.0003C35.3484 54.8146 35.0382 54.7218 34.6839 54.7218C33.985 54.7218 33.6355 55.103 33.6355 55.8654V56.2027ZM38.0063 56.0267H40.3097V63.9152H38.0063V56.0267ZM39.1579 54.927C38.7347 54.927 38.3902 54.8049 38.1243 54.5605C37.8586 54.316 37.7257 54.0131 37.7257 53.6513C37.7257 53.2898 37.8586 52.9867 38.1243 52.7423C38.3902 52.4979 38.7347 52.3758 39.1579 52.3758C39.5812 52.3758 39.9259 52.493 40.1916 52.7277C40.4574 52.9623 40.5903 53.2556 40.5903 53.6075C40.5903 53.9887 40.4574 54.3064 40.1916 54.5605C39.9259 54.8049 39.5812 54.927 39.1579 54.927Z" fill="#3D3C44"/>
<path d="M47.5683 63.534C47.3418 63.7002 47.0613 63.8273 46.7267 63.9152C46.4018 63.9935 46.0573 64.0326 45.693 64.0326C44.7481 64.0326 44.0146 63.793 43.4929 63.3141C42.981 62.8351 42.7252 62.1313 42.7252 61.2027V57.9622H41.4995V56.2027H42.7252V54.2818H45.0286V56.2027H47.0072V57.9622H45.0286V61.1733C45.0286 61.5056 45.1122 61.7647 45.2797 61.9505C45.4568 62.1264 45.7029 62.2143 46.0179 62.2143C46.382 62.2143 46.6922 62.1166 46.9482 61.9212L47.5683 63.534Z" fill="#3D3C44"/>
<path d="M55.5976 55.5575V58.2701H60.3818V60.1762H55.5976V63.9152H53.2055V53.6513H61.0167V55.5575H55.5976Z" fill="#3D3C44"/>
<path d="M64.5295 57.0677C64.8053 56.6865 65.1743 56.3981 65.637 56.2027C66.1095 56.0071 66.651 55.9094 67.2612 55.9094V58.0208C67.0054 58.0013 66.833 57.9915 66.7445 57.9915C66.085 57.9915 65.5681 58.1773 65.1941 58.5487C64.8199 58.9104 64.6329 59.4579 64.6329 60.191V63.9152H62.3294V56.0268H64.5295V57.0677Z" fill="#3D3C44"/>
<path d="M72.3389 64.0326C71.5022 64.0326 70.7491 63.8615 70.0797 63.5193C69.4201 63.1674 68.9034 62.6836 68.5292 62.0677C68.1552 61.4519 67.9681 60.753 67.9681 59.971C67.9681 59.189 68.1552 58.4901 68.5292 57.8742C68.9034 57.2584 69.4201 56.7795 70.0797 56.4373C70.7491 56.0854 71.5022 55.9094 72.3389 55.9094C73.1756 55.9094 73.9237 56.0854 74.5833 56.4373C75.2428 56.7795 75.7597 57.2584 76.1337 57.8742C76.5077 58.4901 76.6948 59.189 76.6948 59.971C76.6948 60.753 76.5077 61.4519 76.1337 62.0677C75.7597 62.6836 75.2428 63.1674 74.5833 63.5193C73.9237 63.8615 73.1756 64.0326 72.3389 64.0326ZM72.3389 62.1557C72.9295 62.1557 73.4119 61.9602 73.7859 61.5693C74.1698 61.1684 74.3618 60.6357 74.3618 59.971C74.3618 59.3063 74.1698 58.7785 73.7859 58.3874C73.4119 57.9866 72.9295 57.7863 72.3389 57.7863C71.7483 57.7863 71.2609 57.9866 70.877 58.3874C70.4931 58.7785 70.3013 59.3063 70.3013 59.971C70.3013 60.6357 70.4931 61.1684 70.877 61.5693C71.2609 61.9602 71.7483 62.1557 72.3389 62.1557Z" fill="#3D3C44"/>
<path d="M86.4296 56.0268V62.5955C86.4296 64.0423 86.0506 65.1176 85.2926 65.8214C84.5346 66.5252 83.4272 66.8771 81.9703 66.8771C81.2024 66.8771 80.474 66.7843 79.7849 66.5985C79.0959 66.4128 78.5249 66.144 78.0721 65.7921L78.9876 64.1498C79.3222 64.4236 79.7455 64.6385 80.2574 64.795C80.7694 64.9611 81.2812 65.0443 81.7931 65.0443C82.5904 65.0443 83.1762 64.8634 83.5502 64.5017C83.9341 64.1498 84.1261 63.6123 84.1261 62.8888V62.5517C83.5256 63.2065 82.6888 63.534 81.6159 63.534C80.8874 63.534 80.218 63.3776 79.6077 63.0648C79.0072 62.7422 78.5299 62.2926 78.1755 61.7158C77.8211 61.1391 77.6439 60.4745 77.6439 59.7217C77.6439 58.969 77.8211 58.3043 78.1755 57.7277C78.5299 57.1509 79.0072 56.7062 79.6077 56.3934C80.218 56.0708 80.8874 55.9094 81.6159 55.9094C82.7676 55.9094 83.6438 56.2858 84.2443 57.0384V56.0268H86.4296ZM82.0737 61.6572C82.684 61.6572 83.1811 61.4812 83.565 61.1293C83.9588 60.7676 84.1556 60.2985 84.1556 59.7217C84.1556 59.1449 83.9588 58.6807 83.565 58.3288C83.1811 57.9671 82.684 57.7863 82.0737 57.7863C81.4633 57.7863 80.9613 57.9671 80.5675 58.3288C80.1737 58.6807 79.9769 59.1449 79.9769 59.7217C79.9769 60.2985 80.1737 60.7676 80.5675 61.1293C80.9613 61.4812 81.4633 61.6572 82.0737 61.6572Z" fill="#3D3C44"/>
<path d="M69.0691 30.5468C69.0691 35.6658 61.2576 43.3588 47.5608 43.4684C35.948 43.4684 27.0156 35.6658 27.0156 30.5468C27.0156 25.4277 36.4296 21.2779 48.0424 21.2779C59.655 21.2779 69.0691 25.4277 69.0691 30.5468Z" fill="#84C225"/>
<mask id="mask0" style="mask-type:alpha" maskUnits="userSpaceOnUse" x="27" y="21" width="43" height="23">
<path d="M69.0691 30.5468C69.0691 35.6658 61.2576 43.3588 47.5608 43.4684C35.948 43.4684 27.0156 35.6658 27.0156 30.5468C27.0156 25.4277 36.4296 21.2779 48.0424 21.2779C59.655 21.2779 69.0691 25.4277 69.0691 30.5468Z" fill="#84C225"/>
</mask>
<g mask="url(#mask0)">
<path d="M69.0528 33.1469C47.5807 40.797 32.4801 34.932 27.3495 32.3609L27.0156 30.6168L70.3836 30.0748C69.9199 30.9985 69.0045 32.9059 69.0528 33.1469Z" fill="#517E0C"/>
<path fill-rule="evenodd" clip-rule="evenodd" d="M69.6842 30.685C53.2217 40.8964 31.0952 34.7354 26.4545 30.4933C27.2666 23.0969 36.0711 15.888 47.837 15.888C59.705 15.888 68.727 22.5329 69.6842 30.685Z" fill="#ABE158"/>
</g>
<mask id="mask1" style="mask-type:alpha" maskUnits="userSpaceOnUse" x="-23" y="-7" width="142" height="67">
<path fill-rule="evenodd" clip-rule="evenodd" d="M118.3 41.387C64.8339 74.4021 -7.02796 54.4825 -22.1 40.7672C-19.4625 16.8533 9.13254 -6.45455 47.3455 -6.45455C85.8899 -6.45455 115.191 15.0298 118.3 41.387Z" fill="#B8DB7C"/>
</mask>
<g mask="url(#mask1)">
<path d="M46.9768 14.575C46.9768 18.9109 43.5232 22.4258 39.263 22.4258C35.0028 22.4258 31.5492 18.9109 31.5492 14.575C31.5492 10.2392 35.0028 6.72433 39.263 6.72433C43.5232 6.72433 46.9768 10.2392 46.9768 14.575Z" fill="#84C225"/>
<path d="M64.5852 14.3052C64.5852 18.6411 61.1316 22.156 56.8714 22.156C52.6111 22.156 49.1576 18.6411 49.1576 14.3052C49.1576 9.96942 52.6111 6.45454 56.8714 6.45454C61.1316 6.45454 64.5852 9.96942 64.5852 14.3052Z" fill="#84C225"/>
<path d="M44.0326 15.2493C44.0326 18.3519 41.5611 20.8671 38.5125 20.8671C35.464 20.8671 32.9926 18.3519 32.9926 15.2493C32.9926 12.1466 35.464 9.6314 38.5125 9.6314C41.5611 9.6314 44.0326 12.1466 44.0326 15.2493Z" fill="white"/>
<path d="M62.8775 15.2493C62.8775 18.3519 60.4061 20.8671 57.3574 20.8671C54.3089 20.8671 51.8375 18.3519 51.8375 15.2493C51.8375 12.1466 54.3089 9.6314 57.3574 9.6314C60.4061 9.6314 62.8775 12.1466 62.8775 15.2493Z" fill="white"/>
<path d="M38.6443 14.8903C38.6443 16.2554 37.557 17.3619 36.2158 17.3619C34.8746 17.3619 33.7873 16.2554 33.7873 14.8903C33.7873 13.5253 34.8746 12.4187 36.2158 12.4187C37.557 12.4187 38.6443 13.5253 38.6443 14.8903Z" fill="#383431"/>
<path d="M58.6661 15.2496C58.6661 16.6146 57.5788 17.7212 56.2376 17.7212C54.8964 17.7212 53.8091 16.6146 53.8091 15.2496C53.8091 13.8846 54.8964 12.778 56.2376 12.778C57.5788 12.778 58.6661 13.8846 58.6661 15.2496Z" fill="#383431"/>
<path fill-rule="evenodd" clip-rule="evenodd" d="M24.1322 21.2289C22.9271 20.95 21.7768 21.6852 20.6705 23.2093C20.4368 23.5312 20.0385 24.3112 19.7158 25.4002C19.3963 26.4785 19.1626 27.8219 19.2275 29.2619C19.3558 32.1096 20.6498 35.3903 24.9285 37.8007C28.1072 39.5914 31.2625 39.065 33.6801 38.0285C34.8882 37.5106 35.8975 36.8703 36.6081 36.3468C36.9632 36.0853 37.2404 35.8554 37.4278 35.6877C37.5219 35.6035 37.59 35.538 37.6325 35.4943C37.6421 35.4845 37.6496 35.4766 37.6549 35.4708C37.791 35.2651 38.0498 35.1681 38.292 35.2507C38.5828 35.3499 38.7396 35.6701 38.6421 35.9661C38.6144 36.0503 38.5723 36.1109 38.562 36.1257L38.5611 36.1269C38.5437 36.1519 38.5264 36.1736 38.513 36.1896C38.4856 36.2224 38.4539 36.2566 38.4216 36.2896C38.356 36.3572 38.268 36.4409 38.161 36.5367C37.946 36.7291 37.6412 36.9812 37.2593 37.2625C36.4963 37.8245 35.4134 38.5118 34.1112 39.0701C31.5082 40.1863 27.9709 40.8067 24.3906 38.7896C19.7548 36.1779 18.263 32.53 18.1181 29.3137C18.0463 27.7216 18.3043 26.2491 18.6525 25.0738C18.9975 23.9093 19.4429 22.9981 19.7773 22.5376C20.9429 20.932 22.4875 19.6893 24.3782 20.1266C25.3019 20.3402 25.9801 20.8941 26.2965 21.6515C26.61 22.4019 26.5349 23.272 26.1157 24.0613C25.5722 25.0847 24.3961 25.1194 23.6436 24.7729C23.248 24.5907 22.876 24.2727 22.6873 23.823C22.4896 23.3511 22.5274 22.8126 22.8253 22.2912C22.9794 22.0214 23.3193 21.9298 23.5845 22.0867C23.8495 22.2435 23.9395 22.5895 23.7854 22.8593C23.6435 23.1078 23.6638 23.2717 23.7089 23.3794C23.7633 23.5093 23.8946 23.6478 24.1016 23.7432C24.554 23.9515 24.9786 23.8251 25.1386 23.5239C25.4229 22.9885 25.4358 22.48 25.2745 22.0938C25.1159 21.7144 24.7564 21.3732 24.1322 21.2289ZM37.667 35.4573C37.667 35.4574 37.6668 35.4574 37.6668 35.4575L37.667 35.4573Z" fill="#517E0C"/>
<path d="M29.757 12.2696C29.757 16.8258 26.1276 20.5195 21.6508 20.5195C17.1739 20.5195 13.5446 16.8258 13.5446 12.2696C13.5446 7.71323 17.1739 4.01959 21.6508 4.01959C26.1276 4.01959 29.757 7.71323 29.757 12.2696Z" fill="#DBA50D"/>
<path d="M28.3642 12.271C28.3642 16.8735 25.3582 20.6045 21.6501 20.6045C17.942 20.6045 14.9361 16.8735 14.9361 12.271C14.9361 7.66864 17.942 3.93764 21.6501 3.93764C25.3582 3.93764 28.3642 7.66864 28.3642 12.271Z" fill="#FFBE00"/>
<path d="M27.3023 12.2716C27.3023 15.4477 24.7725 18.0224 21.6518 18.0224C18.531 18.0224 16.0012 15.4477 16.0012 12.2716C16.0012 9.09546 18.531 6.52073 21.6518 6.52073C24.7725 6.52073 27.3023 9.09546 27.3023 12.2716Z" fill="#FFF343"/>
<path d="M21.6589 17.0093C21.9029 17.0093 22.1199 16.8714 22.1199 16.5402V16.0987C23.5786 15.9386 24.4897 15.0666 24.4897 13.7972C24.4897 12.7044 23.8443 12.0421 22.505 11.7441L21.4041 11.4902C20.7154 11.3357 20.3792 11.0156 20.3792 10.5465C20.3792 9.98352 20.8563 9.5751 21.6047 9.5751C22.2121 9.5751 22.6351 9.78482 23.1069 10.3202C23.3454 10.5741 23.5299 10.6679 23.7793 10.6679C24.083 10.6679 24.3161 10.4526 24.3161 10.1325C24.3161 9.82346 24.1372 9.4868 23.8336 9.18324C23.4322 8.79691 22.8303 8.54303 22.1524 8.45472V7.99664C22.1524 7.67101 21.9356 7.53304 21.6861 7.53304C21.4421 7.53304 21.2251 7.6655 21.2251 7.99664V8.43817C19.8206 8.57063 18.9258 9.42609 18.9258 10.6513C18.9258 11.722 19.5711 12.434 20.8075 12.7155L21.9084 12.9749C22.711 13.168 23.0417 13.455 23.0417 13.9407C23.0417 14.5698 22.5592 14.9673 21.6969 14.9673C21.0516 14.9673 20.5147 14.7189 20.0266 14.1836C19.7501 13.9021 19.5983 13.8414 19.3921 13.8414C19.0614 13.8414 18.8119 14.0566 18.8119 14.4264C18.8119 14.752 18.9963 15.0887 19.3271 15.3812C19.7609 15.7841 20.4387 16.0324 21.1926 16.1042V16.5402C21.1926 16.8714 21.4094 17.0093 21.6589 17.0093Z" fill="#E0C837"/>
<path d="M21.6583 17.0093C21.8625 17.0093 22.0441 16.8714 22.0441 16.5402V16.0987C23.2651 15.9386 24.0275 15.0666 24.0275 13.7972C24.0275 12.7044 23.4875 12.0421 22.3664 11.7441L21.4449 11.4902C20.8685 11.3357 20.5871 11.0156 20.5871 10.5465C20.5871 9.98352 20.9864 9.5751 21.6129 9.5751C22.1212 9.5751 22.4753 9.78482 22.8701 10.3202C23.0698 10.5741 23.2242 10.6679 23.433 10.6679C23.6872 10.6679 23.8823 10.4526 23.8823 10.1325C23.8823 9.82346 23.7325 9.4868 23.4784 9.18324C23.1425 8.79691 22.6386 8.54303 22.0713 8.45472V7.99664C22.0713 7.67101 21.8898 7.53304 21.6809 7.53304C21.4767 7.53304 21.2952 7.6655 21.2952 7.99664V8.43817C20.1196 8.57063 19.3707 9.42609 19.3707 10.6513C19.3707 11.722 19.9108 12.434 20.9456 12.7155L21.867 12.9749C22.5388 13.168 22.8157 13.455 22.8157 13.9407C22.8157 14.5698 22.4117 14.9673 21.69 14.9673C21.1498 14.9673 20.7006 14.7189 20.292 14.1836C20.0606 13.9021 19.9334 13.8414 19.7609 13.8414C19.4841 13.8414 19.2752 14.0566 19.2752 14.4264C19.2752 14.752 19.4297 15.0887 19.7064 15.3812C20.0697 15.7841 20.637 16.0324 21.2679 16.1042V16.5402C21.2679 16.8714 21.4495 17.0093 21.6583 17.0093Z" fill="#D8BA05"/>
<path fill-rule="evenodd" clip-rule="evenodd" d="M21.2811 16.4272V8.65375H22.0216V16.4272H21.2811Z" fill="#D8BA05"/>
</g>
</g>
<defs>
<clipPath id="clip0">
<rect width="91" height="71" fill="white"/>
</clipPath>
</defs>
</svg>
