<svg width="261" height="254" viewBox="0 0 261 254" fill="none" xmlns="http://www.w3.org/2000/svg">
<path d="M183.97 191.991C217.749 158.213 217.749 103.447 183.97 69.6691C150.192 35.8908 95.4266 35.8907 61.6483 69.669C27.87 103.447 27.87 158.213 61.6483 191.991C95.4267 225.769 150.192 225.769 183.97 191.991Z" fill="#9DD0F5"/>
<path d="M255.326 1.6499L248.298 55.3493L230.549 49.3126L225.413 64.3592L217.845 43.5462L196.671 37.5996L255.326 1.6499Z" fill="#EAAD40"/>
<path d="M226.584 48.0512L248.298 55.3493L230.549 49.3126L225.413 64.3592L217.845 43.5462L241.901 18.3184L226.584 48.0512Z" fill="#E5923E"/>
<path d="M219.737 48.6819L241.901 18.3184L217.845 43.5462L219.737 48.6819Z" fill="#E1763B"/>
<path d="M226.675 70.486C226.585 69.4949 226.495 68.5038 226.495 67.5127H224.963C224.963 68.5038 225.053 69.585 225.143 70.5761L226.675 70.486Z" fill="#4EA0D0"/>
<path d="M252.263 96.885C254.065 96.2543 255.687 95.1731 256.948 93.7315L258.119 94.7226C256.768 96.3444 254.876 97.6058 252.804 98.3266L252.263 96.885ZM240.55 96.3444L241.361 95.083C243.163 96.2543 244.965 96.9751 246.677 97.2454L246.406 98.687C244.514 98.4167 242.532 97.6058 240.55 96.3444ZM259.291 88.686C259.561 87.0642 259.561 85.3523 259.11 83.7305C259.11 83.6404 259.02 83.4602 259.02 83.3701L258.93 83.0998L260.372 82.5592L260.462 82.8295C260.552 83.0097 260.552 83.0998 260.552 83.28C261.093 85.082 261.093 86.9741 260.822 88.8662L259.291 88.686ZM198.564 105.805L198.293 104.363C200.275 104.003 202.258 103.462 204.15 103.012L204.51 104.453C202.618 104.904 200.636 105.354 198.564 105.805ZM209.826 101.12L210.727 100.759C212.439 100.129 213.971 99.4979 215.412 98.7771L216.043 100.129C214.601 100.849 212.979 101.48 211.268 102.111L210.367 102.471L209.826 101.12ZM186.49 107.427L186.4 105.895C188.472 105.715 190.455 105.535 192.347 105.264L192.527 106.796C190.635 107.066 188.563 107.337 186.49 107.427ZM220.548 95.8939C221.989 94.9028 223.341 93.8216 224.512 92.6503C224.692 92.4701 224.873 92.2899 225.053 92.1097L226.134 93.1008C225.954 93.281 225.774 93.4612 225.593 93.7315C224.332 94.9929 222.981 96.0741 221.449 97.1553L220.548 95.8939ZM231.72 87.785L232.982 86.884C234.153 88.5058 235.414 90.0375 236.856 91.3889L235.775 92.4701C234.243 91.0285 232.892 89.4969 231.72 87.785ZM174.327 107.877V106.345C176.399 106.345 178.381 106.345 180.363 106.255L180.454 107.787C178.471 107.877 176.399 107.967 174.327 107.877ZM162.163 107.427L162.253 105.895C164.236 106.075 166.308 106.165 168.29 106.255L168.2 107.787C166.218 107.697 164.146 107.607 162.163 107.427ZM228.837 87.4246C229.918 86.0731 231.09 84.5414 232.531 83.1899C232.711 83.0097 232.801 82.9196 232.982 82.7394L233.973 83.8206L233.522 84.181C232.171 85.4424 231.09 86.884 230.008 88.2355L228.837 87.4246ZM250.01 77.6938L250.101 76.1621C252.623 76.1621 254.605 76.6126 256.227 77.5136L255.507 78.8651C254.155 78.1443 252.263 77.6938 250.01 77.6938ZM238.027 79.2255C239.829 78.2344 241.811 77.5136 243.794 76.973L244.154 78.4146L243.523 78.5948C241.811 79.0453 240.19 79.7661 238.658 80.577L238.027 79.2255ZM226.404 76.7027L227.846 76.2522C228.387 78.1443 229.107 80.0364 229.918 81.7483L228.567 82.379C227.666 80.577 226.945 78.6849 226.404 76.7027Z" fill="#4EA0D0"/>
<path d="M156.037 106.976L156.217 105.445C155.226 105.355 154.235 105.264 153.243 105.174L153.063 106.706C154.054 106.796 155.045 106.886 156.037 106.976Z" fill="#4EA0D0"/>
<path d="M235.504 7.41604L220.368 15.7052C219.557 16.1557 219.286 17.0567 219.737 17.8676L219.827 18.1379C220.277 18.9488 221.268 19.2191 221.989 18.7686L236.946 10.2091C237.757 9.75863 238.027 8.76754 237.486 7.95664C237.126 7.23585 236.225 6.96555 235.504 7.41604Z" fill="#EAAD40"/>
<path d="M38.3665 185.363C35.0328 185.363 32.3298 188.066 32.3298 191.399C32.3298 194.733 35.0328 197.436 38.3665 197.436C41.7002 197.436 44.4032 194.733 44.4032 191.399C44.4032 188.066 41.7002 185.363 38.3665 185.363ZM38.3665 193.922C37.015 193.922 35.9338 192.841 35.9338 191.49C35.9338 190.138 37.015 189.057 38.3665 189.057C39.718 189.057 40.7992 190.138 40.7992 191.49C40.7992 192.841 39.718 193.922 38.3665 193.922Z" fill="#9DD0F5"/>
<path d="M200.546 201.401C197.212 201.401 194.509 204.104 194.509 207.438C194.509 210.771 197.212 213.474 200.546 213.474C203.879 213.474 206.582 210.771 206.582 207.438C206.582 204.104 203.879 201.401 200.546 201.401ZM200.546 209.87C199.194 209.87 198.113 208.789 198.113 207.438C198.113 206.086 199.194 205.005 200.546 205.005C201.897 205.005 202.978 206.086 202.978 207.438C202.978 208.789 201.897 209.87 200.546 209.87Z" fill="#9DD0F5"/>
<path d="M246.677 122.563C244.154 122.563 242.082 124.636 242.082 127.159C242.082 129.681 244.154 131.754 246.677 131.754C249.2 131.754 251.272 129.681 251.272 127.159C251.272 124.636 249.2 122.563 246.677 122.563ZM246.677 129.051C245.686 129.051 244.785 128.24 244.785 127.159C244.785 126.167 245.596 125.266 246.677 125.266C247.758 125.266 248.569 126.077 248.569 127.159C248.569 128.24 247.668 129.051 246.677 129.051Z" fill="#9DD0F5"/>
<path d="M156.127 20.0303C153.424 20.0303 151.261 22.1927 151.261 24.8957C151.261 27.5986 153.424 29.761 156.127 29.761C158.83 29.761 160.992 27.5986 160.992 24.8957C161.082 22.2828 158.83 20.0303 156.127 20.0303ZM156.127 26.9679C155.045 26.9679 154.144 26.0669 154.144 24.9858C154.144 23.9046 155.045 23.0036 156.127 23.0036C157.208 23.0036 158.109 23.9046 158.109 24.9858C158.109 26.0669 157.208 26.9679 156.127 26.9679Z" fill="#9DD0F5"/>
<path d="M11.787 147.431C8.90385 147.431 6.65137 149.774 6.65137 152.567C6.65137 155.45 8.99395 157.702 11.787 157.702C14.6702 157.702 16.9227 155.36 16.9227 152.567C16.9227 149.774 14.5801 147.431 11.787 147.431Z" fill="#9DD0F5"/>
<path d="M218.385 164.46C216.313 164.46 214.601 166.172 214.601 168.244C214.601 170.316 216.313 172.028 218.385 172.028C220.458 172.028 222.17 170.316 222.17 168.244C222.17 166.172 220.458 164.46 218.385 164.46Z" fill="#9DD0F5"/>
<path d="M136.485 7.146C133.421 7.146 130.989 9.57869 130.989 12.6421C130.989 15.7055 133.421 18.1381 136.485 18.1381C139.548 18.1381 141.981 15.7055 141.981 12.6421C141.981 9.66879 139.548 7.146 136.485 7.146Z" fill="#9DD0F5"/>
<path d="M16.9229 197.436C14.7605 197.436 12.9585 199.238 12.9585 201.4C12.9585 203.563 14.7605 205.365 16.9229 205.365C19.0853 205.365 20.8873 203.563 20.8873 201.4C20.8873 199.148 19.0853 197.436 16.9229 197.436Z" fill="#9DD0F5"/>
<path d="M198.293 50.1235C195.68 50.1235 193.608 52.1958 193.608 54.8087C193.608 57.4216 195.68 59.4939 198.293 59.4939C200.906 59.4939 202.979 57.4216 202.979 54.8087C202.979 52.1958 200.906 50.1235 198.293 50.1235Z" fill="#9DD0F5"/>
<path d="M30.7081 97.3357C32.2009 97.3357 33.4111 96.1255 33.4111 94.6327C33.4111 93.1399 32.2009 91.9297 30.7081 91.9297C29.2153 91.9297 28.0051 93.1399 28.0051 94.6327C28.0051 96.1255 29.2153 97.3357 30.7081 97.3357Z" fill="#9DD0F5"/>
<path d="M222.17 135.808C219.647 135.808 217.665 137.88 217.665 140.313C217.665 142.836 219.737 144.818 222.17 144.818C224.693 144.818 226.675 142.746 226.675 140.313C226.675 137.79 224.693 135.808 222.17 135.808Z" fill="#9DD0F5"/>
<path d="M9.17445 113.914C10.7668 113.914 12.0576 112.623 12.0576 111.031C12.0576 109.438 10.7668 108.147 9.17445 108.147C7.58211 108.147 6.29126 109.438 6.29126 111.031C6.29126 112.623 7.58211 113.914 9.17445 113.914Z" fill="#9DD0F5"/>
<path d="M116.663 33.0046L118.465 31.2026C119.096 30.5719 119.096 29.5808 118.465 28.9501C117.835 28.3194 116.843 28.3194 116.213 28.9501L114.411 30.7521L112.609 28.9501C111.978 28.3194 110.987 28.3194 110.356 28.9501C109.726 29.5808 109.726 30.5719 110.356 31.2026L112.158 33.0046L110.356 34.8065C109.726 35.4372 109.726 36.4283 110.356 37.059C110.987 37.6897 111.978 37.6897 112.609 37.059L114.411 35.257L116.213 37.059C116.843 37.6897 117.835 37.6897 118.465 37.059C119.096 36.4283 119.096 35.4372 118.465 34.8065L116.663 33.0046Z" fill="#9DD0F5"/>
<path d="M7.10202 80.1266L8.90401 78.3246C9.5347 77.6939 9.5347 76.7028 8.90401 76.0721C8.27331 75.4414 7.28221 75.4414 6.65152 76.0721L4.84953 77.8741L3.04753 76.0721C2.41684 75.4414 1.42574 75.4414 0.795044 76.0721C0.164347 76.7028 0.164347 77.6939 0.795044 78.3246L2.59704 80.1266L0.795044 81.9286C0.164347 82.5593 0.164347 83.5504 0.795044 84.1811C1.42574 84.8118 2.41684 84.8118 3.04753 84.1811L4.84953 82.3791L6.65152 84.1811C7.28221 84.8118 8.27331 84.8118 8.90401 84.1811C9.5347 83.5504 9.5347 82.5593 8.90401 81.9286L7.10202 80.1266Z" fill="#9DD0F5"/>
<path d="M222.08 191.49L223.611 189.958C224.152 189.417 224.152 188.516 223.611 187.976C223.071 187.435 222.17 187.435 221.629 187.976L220.097 189.507L218.566 187.976C218.025 187.435 217.124 187.435 216.583 187.976C216.043 188.516 216.043 189.417 216.583 189.958L218.115 191.49L216.583 193.021C216.043 193.562 216.043 194.463 216.583 195.004C217.124 195.544 218.025 195.544 218.566 195.004L220.097 193.472L221.629 195.004C222.17 195.544 223.071 195.544 223.611 195.004C224.152 194.463 224.152 193.562 223.611 193.021L222.08 191.49Z" fill="#9DD0F5"/>
<path d="M190.005 164.46L119.907 205.816L49.8096 164.46V164.37C49.8997 164.1 53.7739 160.856 59.6304 156.081C59.7205 155.991 59.7205 155.991 59.8106 155.901C79.182 140.133 119.907 107.968 119.907 107.968C119.907 107.968 160.632 140.133 180.003 155.901C186.04 160.766 189.914 164.01 190.005 164.37C190.005 164.37 190.005 164.37 190.005 164.46Z" fill="#6F4D18"/>
<path d="M148.739 73.7295H73.055C66.5678 73.7295 61.342 78.9553 61.342 85.4424V199.869C61.342 206.356 66.5678 211.582 73.055 211.582H167.84C174.327 211.582 179.553 206.356 179.553 199.869V104.634L148.739 73.7295Z" fill="white"/>
<path d="M148.739 92.8308C148.739 99.318 153.965 104.544 160.452 104.544H179.643L148.739 73.6396V92.8308Z" fill="#E5E6E6"/>
<path d="M109.545 93.1011H83.4163C81.0737 93.1011 79.2717 94.9932 79.2717 97.2457V123.375C79.2717 125.717 81.1638 127.519 83.4163 127.519H109.545C111.888 127.519 113.69 125.627 113.69 123.375V97.2457C113.69 94.9031 111.798 93.1011 109.545 93.1011Z" fill="#9DD0F5"/>
<path d="M145.315 137.16H82.6957C80.8037 137.16 79.3621 138.691 79.3621 140.493C79.3621 142.385 80.8938 143.827 82.6957 143.827H145.315C147.207 143.827 148.649 142.295 148.649 140.493C148.649 138.601 147.117 137.16 145.315 137.16Z" fill="#D8D9D9"/>
<path d="M145.315 153.918H82.6957C80.8037 153.918 79.3621 155.45 79.3621 157.252C79.3621 159.144 80.8938 160.586 82.6957 160.586H145.315C147.207 160.586 148.649 159.054 148.649 157.252C148.649 155.45 147.117 153.918 145.315 153.918Z" fill="#D8D9D9"/>
<path d="M116.843 170.227H82.6054C80.7133 170.227 79.2717 171.758 79.2717 173.56C79.2717 175.452 80.8034 176.894 82.6054 176.894H116.843C118.735 176.894 120.177 175.362 120.177 173.56C120.177 171.758 118.735 170.227 116.843 170.227Z" fill="#D8D9D9"/>
<path d="M190.005 164.46V231.764C190.005 236.45 186.13 240.324 181.445 240.324H58.2789C53.5938 240.324 49.7195 236.45 49.7195 231.764V164.46L119.817 205.816L190.005 164.46Z" fill="#EAAD40"/>
<path d="M187.662 237.621L142.522 192.481L119.907 205.816L97.292 192.481L52.1521 237.621C53.6838 239.243 55.8462 240.324 58.2789 240.324H181.445C183.968 240.234 186.13 239.243 187.662 237.621Z" fill="#E5923E"/>
<path d="M40.529 84.091C41.43 84.3613 42.4211 83.8207 42.7815 82.9197C43.1419 81.9286 42.6914 80.9375 41.7003 80.5771C31.2487 76.6128 22.6893 68.7741 17.7338 58.4126C17.2833 57.5116 16.2021 57.1512 15.3011 57.5116C14.4001 57.9621 13.9496 59.0433 14.4001 59.9443C19.8061 71.1167 28.9963 79.586 40.3488 83.9108C40.4389 84.0009 40.529 84.091 40.529 84.091Z" fill="#4EA0D0"/>
<path d="M72.4242 3.45204C89.8135 10.1194 100.085 28.77 96.4808 47.0602C94.6788 56.1603 89.9035 63.7287 83.4164 69.2247C80.9837 71.297 79.8124 74.4505 80.1728 77.604L81.1639 85.5328L69.9915 79.1357C68.1895 78.0545 66.0272 77.6941 63.9549 77.9644C57.738 78.8654 51.0706 78.2347 44.6736 75.802C27.5546 69.3148 17.2833 51.2048 20.3467 33.1849C24.4913 8.94812 49.5389 -5.28761 72.4242 3.45204Z" fill="#4EA0D0"/>
<path d="M52.4221 58.2327L50.8904 55.6198C50.8904 55.6198 53.5934 52.196 48.5478 43.9068C45.5745 38.9514 45.6646 34.987 46.8359 32.0137C48.728 27.3285 53.7736 24.4453 58.7291 25.2562C61.8826 25.7968 65.3965 27.6889 68.0994 32.8246C72.6945 41.3841 77.0193 40.8435 77.0193 40.8435L78.551 43.4563L52.4221 58.2327Z" fill="white"/>
<path d="M71.7034 50.0337C72.6945 52.7367 71.7034 55.8001 69.1807 57.2417C66.6579 58.6833 63.4143 58.0526 61.7024 55.8001L71.7034 50.0337Z" fill="white"/>
<path d="M47.2864 24.7155L48.1874 26.3373C49.629 24.9858 51.3409 24.0848 53.233 23.4541L52.332 21.8323C51.5211 20.4808 49.8092 19.9402 48.3676 20.7511C46.926 21.562 46.4755 23.2739 47.2864 24.7155Z" fill="white"/>
<path d="M69.7212 2.55099C55.3053 2.91139 42.2409 12.552 38.2765 27.1482C33.4111 44.9879 43.8627 63.3682 61.7024 68.2336C71.0727 70.7564 80.6233 69.0445 88.2818 64.2692C86.8402 66.0712 85.2184 67.693 83.4164 69.1346C80.9837 71.2069 79.8124 74.3604 80.1728 77.5138L81.1639 85.4426L69.9915 79.0455C68.1895 77.9643 66.0272 77.6039 63.9549 77.8742C57.738 78.7752 51.0706 78.1445 44.6736 75.7118C27.5546 69.2247 17.2833 51.1147 20.3467 33.0947C24.3111 9.93916 47.5567 -4.11637 69.7212 2.55099Z" fill="#4A97C4"/>
</svg>
